<svg width="30" height="30" viewBox="0 0 30 30" fill="none" xmlns="http://www.w3.org/2000/svg">
<path d="M1.68783 25.3116C1.81412 25.4694 1.97672 25.5944 2.16177 25.6758C2.34681 25.7572 2.54881 25.7926 2.75051 25.7791C2.95222 25.7655 3.14765 25.7033 3.32013 25.5979C3.49261 25.4924 3.63701 25.3468 3.74102 25.1735L5.62623 22.0314L5.65248 22.0157C6.37702 21.581 7.18894 21.3123 8.02978 21.229C8.87062 21.1458 9.71946 21.25 10.5152 21.5342H10.5152C13.118 22.4638 15.9574 22.494 18.5794 21.62L18.5794 21.62C20.3648 21.0249 21.977 20.0012 23.2752 18.6387C24.5733 17.2761 25.5177 15.6162 26.0258 13.8041L28.595 4.64026L25.6564 6.31181C24.2176 7.13019 22.6254 7.64271 20.9795 7.81725C19.3335 7.9918 17.6692 7.82463 16.0909 7.32619L16.0908 7.32619C14.8861 6.94575 13.6074 6.86189 12.3633 7.08174C11.1192 7.30159 9.94663 7.81863 8.94527 8.58891L8.94526 8.58892C8.05096 9.27684 7.31557 10.1496 6.78926 11.1476C6.26295 12.1456 5.9581 13.2454 5.89551 14.3719L5.69184 18.038C5.64856 18.817 5.44621 19.579 5.09727 20.2769L4.68873 21.0939L1.84117 23.5856C1.59824 23.7981 1.4467 24.0962 1.41813 24.4178C1.38956 24.7393 1.48617 25.0595 1.68783 25.3116Z" fill="#A0CC00"/>
<path d="M15.9149 18.7771C15.8417 18.8646 15.738 18.921 15.6248 18.9347C15.5115 18.9484 15.3973 18.9185 15.3054 18.851C14.5105 18.2713 13.5955 17.8779 12.6281 17.6997C11.6606 17.5216 10.6655 17.5633 9.71631 17.8218L7.626 18.3911C7.56918 18.4066 7.50987 18.4107 7.45146 18.4033C7.39305 18.3958 7.33667 18.3769 7.28556 18.3477C7.23445 18.3184 7.18961 18.2794 7.15359 18.2328C7.11756 18.1862 7.09108 18.133 7.07563 18.0762L7.06489 18.0366C7.03372 17.922 7.04937 17.7996 7.10839 17.6965C7.16741 17.5933 7.26498 17.5178 7.37965 17.4866L9.46963 16.9173C10.5554 16.6216 11.6939 16.5741 12.8006 16.7783C13.9072 16.9825 14.9538 17.4332 15.8625 18.097C15.9118 18.1332 15.9532 18.1792 15.9841 18.2321C16.015 18.2849 16.0347 18.3435 16.0421 18.4043C16.0494 18.4651 16.0443 18.5267 16.0269 18.5854C16.0096 18.6441 15.9804 18.6986 15.9411 18.7456L15.9149 18.7771Z" fill="#85B200"/>
<path d="M21.0781 15.4938C21.0172 15.5918 20.9209 15.6624 20.8092 15.691C20.6974 15.7195 20.579 15.7038 20.4786 15.647C18.2449 14.3679 15.6227 13.9432 13.0994 14.4519L11.675 14.7368C11.6655 14.7387 11.656 14.7409 11.6467 14.7434L10.3103 15.1021C10.1955 15.133 10.0732 15.1169 9.97017 15.0575C9.86718 14.9981 9.79201 14.9002 9.76119 14.7854L9.75056 14.7458C9.7353 14.689 9.73138 14.6297 9.73904 14.5713C9.74669 14.5129 9.76577 14.4567 9.79518 14.4057C9.82459 14.3547 9.86376 14.31 9.91044 14.2741C9.95713 14.2383 10.0104 14.2119 10.0673 14.1967L11.4183 13.834L11.4761 13.8205L12.9156 13.5326C15.659 12.9794 18.51 13.4406 20.9391 14.8304C20.9919 14.8602 21.0381 14.9004 21.075 14.9485C21.1118 14.9966 21.1385 15.0517 21.1535 15.1104C21.1686 15.1692 21.1715 15.2303 21.1623 15.2902C21.1531 15.3501 21.1318 15.4076 21.0998 15.459L21.0781 15.4938Z" fill="#85B200"/>
<path d="M22.4556 13.4204C21.9649 13.4202 21.4749 13.3853 20.9892 13.3157L19.6212 13.1203L16.9553 12.7179C16.8378 12.7001 16.7321 12.6364 16.6615 12.5408C16.5909 12.4451 16.5613 12.3253 16.579 12.2078L16.5851 12.1672C16.5939 12.109 16.6141 12.0531 16.6444 12.0027C16.6748 11.9523 16.7149 11.9084 16.7622 11.8734C16.8096 11.8385 16.8634 11.8132 16.9205 11.799C16.9777 11.7849 17.037 11.7821 17.0952 11.7909L19.7575 12.1928L21.1218 12.3876C22.184 12.5404 23.2645 12.5092 24.3161 12.2952C24.4288 12.273 24.5457 12.295 24.6425 12.3566C24.7394 12.4183 24.8088 12.5149 24.8363 12.6264L24.8462 12.666C24.8609 12.725 24.8634 12.7863 24.8536 12.8463C24.8439 12.9063 24.8221 12.9637 24.7895 13.015C24.757 13.0663 24.7143 13.1105 24.6642 13.1448C24.6141 13.1792 24.5576 13.2031 24.498 13.2149C23.8258 13.3515 23.1415 13.4203 22.4556 13.4204Z" fill="#85B200"/>
<path d="M8.72725 15.4804C8.62798 15.5455 8.50692 15.5686 8.39064 15.5446C8.27436 15.5206 8.17236 15.4514 8.10702 15.3523L7.93225 15.0871C7.42992 14.3391 7.23795 13.4251 7.39687 12.5381C7.40821 12.4747 7.43306 12.4145 7.46973 12.3616C7.5064 12.3086 7.55403 12.2642 7.60939 12.2313C7.66475 12.1984 7.72654 12.1778 7.79056 12.1709C7.85459 12.164 7.91935 12.171 7.98045 12.1913L8.01962 12.2044C8.12224 12.2394 8.20886 12.3101 8.26365 12.4037C8.31843 12.4972 8.33773 12.6074 8.31802 12.714C8.20587 13.3594 8.34709 14.0232 8.71224 14.567L8.82749 14.7398L8.89105 14.8367C8.92335 14.8859 8.94565 14.941 8.95665 14.9988C8.96766 15.0567 8.96717 15.1161 8.95521 15.1737C8.94325 15.2314 8.92006 15.2861 8.88695 15.3348C8.85384 15.3834 8.81147 15.4251 8.76226 15.4574L8.72725 15.4804Z" fill="#85B200"/>
<path d="M12.208 13.776H12.167C12.0481 13.776 11.9341 13.7287 11.85 13.6447C11.766 13.5606 11.7188 13.4466 11.7188 13.3277V11.5339C11.7177 10.5046 11.9802 9.49226 12.4812 8.59318C12.5112 8.53884 12.5522 8.49132 12.6015 8.45361C12.6508 8.4159 12.7074 8.38882 12.7677 8.37407C12.828 8.35932 12.8907 8.35723 12.9519 8.36792C13.013 8.37861 13.0713 8.40186 13.123 8.4362L13.1573 8.45907C13.2512 8.52206 13.3179 8.61815 13.3441 8.72814C13.3702 8.83814 13.354 8.95396 13.2985 9.05249C12.8765 9.81138 12.6554 10.6655 12.6563 11.5339V13.3277C12.6563 13.4466 12.609 13.5606 12.525 13.6447C12.4409 13.7287 12.3269 13.776 12.208 13.776Z" fill="#85B200"/>
<path d="M15.7211 11.964L15.6823 11.9511C15.6264 11.9325 15.5748 11.903 15.5303 11.8645C15.4858 11.8259 15.4494 11.7789 15.4231 11.7263C15.3967 11.6736 15.381 11.6163 15.3769 11.5576C15.3727 11.4989 15.3801 11.4399 15.3987 11.3841L15.4928 11.1018C15.7794 10.2493 16.3872 9.5422 17.1871 9.13103C17.2447 9.10159 17.3079 9.08493 17.3725 9.08219C17.437 9.07945 17.5014 9.0907 17.5613 9.11516C17.6211 9.13963 17.6749 9.17673 17.7191 9.22393C17.7632 9.27113 17.7966 9.32731 17.817 9.38863L17.83 9.42747C17.8634 9.53018 17.8589 9.64144 17.8174 9.74113C17.7758 9.84081 17.7 9.92234 17.6036 9.97096C17.027 10.2707 16.5892 10.7823 16.3822 11.3983L16.2881 11.6805C16.2505 11.7933 16.1697 11.8865 16.0633 11.9397C15.957 11.9929 15.8339 12.0016 15.7211 11.964Z" fill="#85B200"/>
<path d="M28.5937 4.64001L25.6974 8.67303C24.7081 10.0508 23.4049 11.1732 21.8957 11.9473C20.3865 12.7215 18.7147 13.1252 17.0185 13.125C15.1734 13.125 13.3596 13.6028 11.754 14.512C10.1483 15.4211 8.80549 16.7306 7.85623 18.3129L5.62498 22.0312L3.74002 25.173C3.6469 25.3283 3.52125 25.4616 3.37171 25.5636C3.22217 25.6657 3.05229 25.7342 2.87377 25.7643C2.69524 25.7945 2.5123 25.7856 2.33754 25.7382C2.16278 25.6909 2.00034 25.6063 1.86141 25.4902C1.72248 25.3741 1.61035 25.2293 1.53274 25.0657C1.45513 24.9021 1.41388 24.7237 1.41182 24.5426C1.40977 24.3616 1.44697 24.1823 1.52085 24.017C1.59474 23.8517 1.70356 23.7043 1.83982 23.5851L4.68748 21.0937L6.62986 17.3853C7.59933 15.5349 9.05666 13.9849 10.844 12.9035C12.6313 11.822 14.6805 11.2502 16.7695 11.25C19.5562 11.2499 22.2472 10.2335 24.3381 8.39119L28.5937 4.64001Z" fill="#85B200"/>
<path d="M5.62498 22.0313L3.74002 25.1731C3.6469 25.3283 3.52125 25.4616 3.37171 25.5637C3.22217 25.6657 3.05229 25.7342 2.87377 25.7643C2.69524 25.7945 2.5123 25.7856 2.33754 25.7383C2.16278 25.6909 2.00034 25.6063 1.86141 25.4902C1.72248 25.3741 1.61035 25.2293 1.53274 25.0657C1.45513 24.9022 1.41388 24.7237 1.41182 24.5427C1.40977 24.3616 1.44697 24.1823 1.52085 24.017C1.59474 23.8517 1.70356 23.7044 1.83982 23.5852L4.68748 21.0938L5.62498 22.0313Z" fill="#719600"/>
</svg>
