<svg width="35" height="35" viewBox="0 0 35 35" fill="none" xmlns="http://www.w3.org/2000/svg">
<path d="M32.5162 14.2394C32.1273 12.4468 31.4139 10.7233 30.4235 9.18333L31.9162 7.26414L27.7359 3.08383L25.8167 4.57652C24.2769 3.58613 22.5534 2.8728 20.7607 2.48384L20.4593 0H14.5407L14.2394 2.48377C12.4467 2.87273 10.7232 3.58606 9.18333 4.57646L7.26414 3.08376L3.08383 7.26407L4.57652 9.18326C3.58613 10.7233 2.8728 12.4467 2.48384 14.2393L0 14.5407V20.4593L2.48384 20.7606C2.87273 22.5532 3.58613 24.2766 4.57652 25.8165L3.08383 27.7357L7.26414 31.9162L9.18333 30.4235C10.7232 31.4139 12.4467 32.1272 14.2394 32.5162L14.5407 35H20.4593L20.7607 32.5162C22.5534 32.1273 24.2769 31.4139 25.8167 30.4235L27.7359 31.9162L31.9162 27.7358L30.4235 25.8166C31.4139 24.2767 32.1273 22.5533 32.5162 20.7607L35 20.4593V14.5407L32.5162 14.2394ZM32.9492 18.6423L30.7619 18.9077L30.6374 19.6671C30.3035 21.705 29.525 23.5864 28.3234 25.2591L27.8761 25.8817L29.186 27.5657L27.5658 29.1858L25.8818 27.876L25.2592 28.3233C23.5867 29.5248 21.7052 30.3034 19.6671 30.6373L18.9077 30.7617L18.6423 32.9492H16.3577L16.0923 30.7619L15.3329 30.6374C13.2948 30.3035 11.4134 29.525 9.7408 28.3234L9.11818 27.8761L7.43415 29.186L5.81403 27.5658L7.12387 25.8818L6.67659 25.2592C5.47497 23.5865 4.69649 21.7051 4.36256 19.6673L4.23814 18.9078L2.05078 18.6423V16.3577L4.23821 16.0923L4.36263 15.3329C4.69649 13.295 5.47504 11.4136 6.67666 9.74073L7.12387 9.11811L5.8141 7.43408L7.43415 5.81403L9.11825 7.12387L9.74087 6.67659C11.4134 5.47504 13.2949 4.69649 15.3329 4.36256L16.0924 4.23814L16.3577 2.05078H18.6423L18.9077 4.23814L19.6671 4.36256C21.7052 4.69649 23.5867 5.47504 25.2592 6.67659L25.8818 7.12387L27.5659 5.81403L29.186 7.43408L27.8761 9.11811L28.3233 9.74073C29.5249 11.4135 30.3034 13.295 30.6374 15.3329L30.7618 16.0923L32.9492 16.3577V18.6423Z" fill="#3E3E3E"/>
<path d="M13.3984 8.27148C12.0617 8.27148 10.9219 9.12878 10.4986 10.3223H8.27148V12.373H10.4986C10.9219 13.5665 12.0617 14.4238 13.3984 14.4238C14.7352 14.4238 15.875 13.5665 16.2982 12.373H26.7285V10.3223H16.2982C15.875 9.12878 14.7352 8.27148 13.3984 8.27148ZM13.3984 12.373C12.833 12.373 12.373 11.9131 12.373 11.3477C12.373 10.7823 12.833 10.3223 13.3984 10.3223C13.9638 10.3223 14.4238 10.7823 14.4238 11.3477C14.4238 11.9131 13.9638 12.373 13.3984 12.373Z" fill="#3E3E3E"/>
<path d="M21.6016 14.4238C20.2648 14.4238 19.125 15.2811 18.7018 16.4746H8.27148V18.5254H18.7018C19.125 19.7189 20.2648 20.5762 21.6016 20.5762C22.9383 20.5762 24.0781 19.7189 24.5014 18.5254H26.7285V16.4746H24.5014C24.0781 15.2811 22.9383 14.4238 21.6016 14.4238ZM21.6016 18.5254C21.0362 18.5254 20.5762 18.0654 20.5762 17.5C20.5762 16.9346 21.0362 16.4746 21.6016 16.4746C22.167 16.4746 22.627 16.9346 22.627 17.5C22.627 18.0654 22.167 18.5254 21.6016 18.5254Z" fill="#3E3E3E"/>
<path d="M13.3984 20.5762C12.0617 20.5762 10.9219 21.4335 10.4986 22.627H8.27148V24.6777H10.4986C10.9219 25.8712 12.0617 26.7285 13.3984 26.7285C14.7352 26.7285 15.875 25.8712 16.2982 24.6777H26.7285V22.627H16.2982C15.875 21.4335 14.7352 20.5762 13.3984 20.5762ZM13.3984 24.6777C12.833 24.6777 12.373 24.2177 12.373 23.6523C12.373 23.0869 12.833 22.627 13.3984 22.627C13.9638 22.627 14.4238 23.0869 14.4238 23.6523C14.4238 24.2177 13.9638 24.6777 13.3984 24.6777Z" fill="#3E3E3E"/>
</svg>
