<svg width="25" height="25" viewBox="0 0 25 25" fill="none" xmlns="http://www.w3.org/2000/svg">
<rect width="25" height="25" rx="12.5" fill="#3E3E3E"/>
<g clip-path="url(#clip0)">
<path d="M12.7514 11.752C14.0439 11.752 15.1632 11.2885 16.0777 10.3738C16.9921 9.45935 17.4557 8.34042 17.4557 7.04775C17.4557 5.75552 16.9921 4.63644 16.0775 3.72166C15.1629 2.80733 14.0438 2.34375 12.7514 2.34375C11.4587 2.34375 10.3398 2.80733 9.42533 3.72181C8.51084 4.63629 8.04712 5.75537 8.04712 7.04775C8.04712 8.34042 8.51084 9.4595 9.42548 10.374C10.3401 11.2883 11.4592 11.752 12.7514 11.752V11.752Z" fill="white"/>
<path d="M20.9826 17.3623C20.9562 16.9817 20.9029 16.5666 20.8243 16.1282C20.7451 15.6865 20.643 15.269 20.5208 14.8874C20.3946 14.4929 20.2229 14.1034 20.0107 13.7301C19.7905 13.3427 19.5318 13.0053 19.2415 12.7277C18.938 12.4373 18.5664 12.2038 18.1366 12.0335C17.7083 11.8641 17.2337 11.7782 16.7261 11.7782C16.5267 11.7782 16.3339 11.86 15.9615 12.1025C15.7323 12.2519 15.4642 12.4248 15.165 12.616C14.9092 12.779 14.5626 12.9317 14.1345 13.07C13.7168 13.2052 13.2927 13.2737 12.8741 13.2737C12.4555 13.2737 12.0316 13.2052 11.6135 13.07C11.1858 12.9319 10.8392 12.7791 10.5837 12.6161C10.2873 12.4267 10.019 12.2539 9.78644 12.1023C9.41451 11.8599 9.22154 11.7781 9.02216 11.7781C8.51433 11.7781 8.03988 11.8641 7.61177 12.0336C7.18232 12.2037 6.81053 12.4372 6.5067 12.7279C6.21657 13.0056 5.95774 13.3428 5.7378 13.7301C5.52575 14.1034 5.35409 14.4928 5.22773 14.8875C5.10569 15.2691 5.00362 15.6865 4.92434 16.1282C4.84581 16.566 4.79247 16.9813 4.76609 17.3627C4.74016 17.7365 4.72705 18.1243 4.72705 18.5161C4.72705 19.5356 5.05115 20.361 5.69026 20.9697C6.32148 21.5704 7.15669 21.8751 8.17235 21.8751H17.5768C18.5924 21.8751 19.4273 21.5705 20.0587 20.9697C20.698 20.3614 21.0221 19.5359 21.0221 18.5159C21.0219 18.1224 21.0087 17.7342 20.9826 17.3623V17.3623Z" fill="white"/>
</g>
<defs>
<clipPath id="clip0">
<rect width="19.5312" height="19.5313" fill="white" transform="translate(3.125 2.34375)"/>
</clipPath>
</defs>
</svg>
